<svg id="chart-de-10" width="100%" xmlns="http://www.w3.org/2000/svg" class="statediagram" style="max-width: 748px;" viewBox="0 0 748.03 754.53" role="graphics-document document" aria-roledescription="stateDiagram"><style>#chart-de-10{font-family:ui-sans-serif,system-ui,-apple-system,"Segoe UI",Roboto,"Helvetica Neue",Arial,"Noto Sans",sans-serif;font-size:16px;fill:var(--fig-ink, #111827);}@keyframes edge-animation-frame{from{stroke-dashoffset:0;}}@keyframes dash{to{stroke-dashoffset:0;}}#chart-de-10 .edge-animation-slow{stroke-dasharray:9,5!important;stroke-dashoffset:900;animation:dash 50s linear infinite;stroke-linecap:round;}#chart-de-10 .edge-animation-fast{stroke-dasharray:9,5!important;stroke-dashoffset:900;animation:dash 20s linear infinite;stroke-linecap:round;}#chart-de-10 .error-icon{fill:var(--fig-elevated, #f4f5f7);}#chart-de-10 .error-text{fill:var(--fig-ink, #111827);stroke:var(--fig-ink, #111827);}#chart-de-10 .edge-thickness-normal{stroke-width:1px;}#chart-de-10 .edge-thickness-thick{stroke-width:3.5px;}#chart-de-10 .edge-pattern-solid{stroke-dasharray:0;}#chart-de-10 .edge-thickness-invisible{stroke-width:0;fill:none;}#chart-de-10 .edge-pattern-dashed{stroke-dasharray:3;}#chart-de-10 .edge-pattern-dotted{stroke-dasharray:2;}#chart-de-10 .marker{fill:var(--fig-ink, #111827);stroke:var(--fig-ink, #111827);}#chart-de-10 .marker.cross{stroke:var(--fig-ink, #111827);}#chart-de-10 svg{font-family:ui-sans-serif,system-ui,-apple-system,"Segoe UI",Roboto,"Helvetica Neue",Arial,"Noto Sans",sans-serif;font-size:16px;}#chart-de-10 p{margin:0;}#chart-de-10 defs [id$="-barbEnd"]{fill:var(--fig-ink, #111827);stroke:var(--fig-ink, #111827);}#chart-de-10 g.stateGroup text{fill:var(--fig-ink, #111827);stroke:none;font-size:10px;}#chart-de-10 g.stateGroup text{fill:var(--fig-ink, #111827);stroke:none;font-size:10px;}#chart-de-10 g.stateGroup .state-title{font-weight:bolder;fill:var(--fig-ink, #111827);}#chart-de-10 g.stateGroup rect{fill:var(--fig-bg, #ffffff);stroke:var(--fig-ink, #111827);}#chart-de-10 g.stateGroup line{stroke:var(--fig-ink, #111827);stroke-width:1;}#chart-de-10 .transition{stroke:var(--fig-ink, #111827);stroke-width:1;fill:none;}#chart-de-10 .stateGroup .composit{fill:var(--fig-bg, #ffffff);border-bottom:1px;}#chart-de-10 .stateGroup .alt-composit{fill:var(--fig-elevated, #f4f5f7);border-bottom:1px;}#chart-de-10 .state-note{stroke:var(--fig-strong, #bcc3cc);fill:var(--fig-elevated, #f4f5f7);}#chart-de-10 .state-note text{fill:var(--fig-ink, #111827);stroke:none;font-size:10px;}#chart-de-10 .stateLabel .box{stroke:none;stroke-width:0;fill:var(--fig-bg, #ffffff);opacity:0.5;}#chart-de-10 .edgeLabel .label rect{fill:var(--fig-bg, #ffffff);opacity:0.5;}#chart-de-10 .edgeLabel{background-color:var(--fig-bg, #ffffff);text-align:center;}#chart-de-10 .edgeLabel p{background-color:var(--fig-bg, #ffffff);}#chart-de-10 .edgeLabel rect{background-color:var(--fig-bg, #ffffff);fill:var(--fig-bg, #ffffff);}#chart-de-10 .edgeLabel .label text{fill:var(--fig-ink, #111827);}#chart-de-10 .label div .edgeLabel{color:var(--fig-ink, #111827);}#chart-de-10 .stateLabel text{fill:var(--fig-ink, #111827);font-size:10px;font-weight:bold;}#chart-de-10 .node circle.state-start{fill:var(--fig-ink, #111827);stroke:var(--fig-ink, #111827);}#chart-de-10 .node .fork-join{fill:var(--fig-ink, #111827);stroke:var(--fig-ink, #111827);}#chart-de-10 .node circle.state-end{fill:var(--fig-ink, #111827);stroke:var(--fig-bg, #ffffff);stroke-width:1.5;}#chart-de-10 .end-state-inner{fill:var(--fig-elevated, #f4f5f7);stroke-width:1.5;}#chart-de-10 .node rect{fill:var(--fig-bg, #ffffff);stroke:var(--fig-ink, #111827);stroke-width:1px;}#chart-de-10 .node polygon{fill:var(--fig-bg, #ffffff);stroke:var(--fig-ink, #111827);stroke-width:1px;}#chart-de-10 [id$="-barbEnd"]{fill:var(--fig-ink, #111827);}#chart-de-10 .statediagram-cluster rect{fill:var(--fig-elevated, #f4f5f7);stroke:var(--fig-ink, #111827);stroke-width:1px;}#chart-de-10 .cluster-label,#chart-de-10 .nodeLabel{color:var(--fig-ink, #111827);}#chart-de-10 .statediagram-cluster rect.outer{rx:5px;ry:5px;}#chart-de-10 .statediagram-state .divider{stroke:var(--fig-ink, #111827);}#chart-de-10 .statediagram-state .title-state{rx:5px;ry:5px;}#chart-de-10 .statediagram-cluster.statediagram-cluster .inner{fill:var(--fig-elevated, #f4f5f7);}#chart-de-10 .statediagram-cluster.statediagram-cluster-alt .inner{fill:var(--fig-elevated, #f4f5f7);}#chart-de-10 .statediagram-cluster .inner{rx:0;ry:0;}#chart-de-10 .statediagram-state rect.basic{rx:5px;ry:5px;}#chart-de-10 .statediagram-state rect.divider{stroke-dasharray:10,10;fill:var(--fig-elevated, #f4f5f7);}#chart-de-10 .note-edge{stroke-dasharray:5;}#chart-de-10 .statediagram-note rect{fill:var(--fig-elevated, #f4f5f7);stroke:var(--fig-strong, #bcc3cc);stroke-width:1px;rx:0;ry:0;}#chart-de-10 .statediagram-note rect{fill:var(--fig-elevated, #f4f5f7);stroke:var(--fig-strong, #bcc3cc);stroke-width:1px;rx:0;ry:0;}#chart-de-10 .statediagram-note text{fill:var(--fig-ink, #111827);}#chart-de-10 .statediagram-note .nodeLabel{color:var(--fig-ink, #111827);}#chart-de-10 .statediagram .edgeLabel{color:red;}#chart-de-10 [id$="-dependencyStart"],#chart-de-10 [id$="-dependencyEnd"]{fill:var(--fig-ink, #111827);stroke:var(--fig-ink, #111827);stroke-width:1;}#chart-de-10 .statediagramTitleText{text-anchor:middle;font-size:18px;fill:var(--fig-ink, #111827);}#chart-de-10 [data-look="neo"].statediagram-cluster rect{fill:var(--fig-bg, #ffffff);stroke:url(#chart-de-10-gradient);stroke-width:1;}#chart-de-10 [data-look="neo"].statediagram-cluster rect.outer{rx:5px;ry:5px;}#chart-de-10 .node .neo-node{stroke:var(--fig-ink, #111827);}#chart-de-10 [data-look="neo"].node rect,#chart-de-10 [data-look="neo"].cluster rect,#chart-de-10 [data-look="neo"].node polygon{stroke:url(#chart-de-10-gradient);}#chart-de-10 [data-look="neo"].swimlane.cluster rect{filter:none;}#chart-de-10 [data-look="neo"].node path{stroke:url(#chart-de-10-gradient);stroke-width:1px;}#chart-de-10 [data-look="neo"].node .outer-path{}#chart-de-10 [data-look="neo"].node .neo-line path{stroke:var(--fig-ink, #111827);filter:none;}#chart-de-10 [data-look="neo"].node circle{stroke:url(#chart-de-10-gradient);}#chart-de-10 [data-look="neo"].node circle .state-start{fill:var(--fig-ink, #111827);}#chart-de-10 [data-look="neo"].icon-shape .icon{fill:url(#chart-de-10-gradient);}#chart-de-10 [data-look="neo"].icon-shape .icon-neo path{stroke:url(#chart-de-10-gradient);}#chart-de-10 :root{--mermaid-font-family:ui-sans-serif,system-ui,-apple-system,"Segoe UI",Roboto,"Helvetica Neue",Arial,"Noto Sans",sans-serif;}</style><g><defs><marker id="chart-de-10_stateDiagram-barbEnd" refX="19" refY="7" markerWidth="20" markerHeight="14" markerUnits="userSpaceOnUse" orient="auto"><path d="M 19,7 L9,13 L14,7 L9,1 Z"></path></marker></defs><g class="root"><g class="clusters"></g><g class="edgePaths"><path d="M296.49,22L296.49,28.07C296.49,34.14,296.49,46.28,296.49,58.42C296.49,70.56,296.49,82.70,296.49,88.77L296.49,94.84" id="chart-de-10-edge0" class="edge-thickness-normal edge-pattern-solid transition" style="fill:none;;;fill:none" marker-end="url(#chart-de-10_stateDiagram-barbEnd)"></path><path d="M329.43,128.06L348.78,137.33C368.12,146.61,406.81,165.16,426.15,183.44C445.5,201.71,445.5,219.72,445.5,228.73L445.5,237.73" id="chart-de-10-edge1" class="edge-thickness-normal edge-pattern-solid transition" style="fill:none;;;fill:none" marker-end="url(#chart-de-10_stateDiagram-barbEnd)"></path><path d="M263.54,124.44L236.82,134.32C210.09,144.19,156.64,163.95,129.91,185.74C103.18,207.52,103.18,231.34,103.18,253.69C103.18,276.03,103.18,296.92,103.18,318.27C103.18,339.62,103.18,361.44,103.18,381.79C103.18,402.14,103.18,421.02,103.18,439.90C103.18,458.78,103.18,477.67,103.18,498.02C103.18,518.37,103.18,540.19,131.65,558.75C160.11,577.31,217.04,592.62,245.50,600.27L273.96,607.93" id="chart-de-10-edge2" class="edge-thickness-normal edge-pattern-solid transition" style="fill:none;;;fill:none" marker-end="url(#chart-de-10_stateDiagram-barbEnd)"></path><path d="M445.5,272.57L445.5,280.11C445.5,287.65,445.5,302.72,445.5,318.27C445.5,333.81,445.5,349.82,445.5,357.83L445.5,365.83" id="chart-de-10-edge3" class="edge-thickness-normal edge-pattern-solid transition" style="fill:none;;;fill:none" marker-end="url(#chart-de-10_stateDiagram-barbEnd)"></path><path d="M407.75,392.25L374.40,400.19C341.06,408.13,274.38,424.02,241.04,441.40C207.70,458.78,207.70,477.67,207.70,498.02C207.70,518.37,207.70,540.19,223.15,558.63C238.61,577.08,269.52,592.15,284.98,599.69L300.44,607.23" id="chart-de-10-edge4" class="edge-thickness-normal edge-pattern-solid transition" style="fill:none;;;fill:none" marker-end="url(#chart-de-10_stateDiagram-barbEnd)"></path><path d="M472.82,400.68L483.07,407.21C493.32,413.75,513.82,426.83,537.46,439.90C561.10,452.98,587.88,466.05,601.26,472.59L614.65,479.13" id="chart-de-10-edge5" class="edge-thickness-normal edge-pattern-solid transition" style="fill:none;;;fill:none" marker-end="url(#chart-de-10_stateDiagram-barbEnd)"></path><path d="M431.87,400.68L426.76,407.21C421.65,413.75,411.42,426.83,406.31,442.81C401.20,458.78,401.20,477.67,401.20,498.02C401.20,518.37,401.20,540.19,393.37,558.63C385.55,577.08,369.90,592.15,362.07,599.69L354.25,607.23" id="chart-de-10-edge6" class="edge-thickness-normal edge-pattern-solid transition" style="fill:none;;;fill:none" marker-end="url(#chart-de-10_stateDiagram-barbEnd)"></path><path d="M666.50,479.13L672.57,472.59C678.63,466.05,690.77,452.98,660.23,438.38C629.69,423.79,556.47,407.67,519.86,399.62L483.25,391.56" id="chart-de-10-edge7" class="edge-thickness-normal edge-pattern-solid transition" style="fill:none;;;fill:none" marker-end="url(#chart-de-10_stateDiagram-barbEnd)"></path><path d="M650.33,513.97L650.33,521.98C650.33,529.98,650.33,545.99,608.33,562.37C566.34,578.75,482.35,595.50,440.35,603.88L398.35,612.25" id="chart-de-10-edge8" class="edge-thickness-normal edge-pattern-solid transition" style="fill:none;;;fill:none" marker-end="url(#chart-de-10_stateDiagram-barbEnd)"></path><path d="M336.16,642.07L336.16,649.61C336.16,657.15,336.16,672.22,336.16,687.30C336.16,702.37,336.16,717.45,336.16,724.98L336.16,732.52" id="chart-de-10-edge9" class="edge-thickness-normal edge-pattern-solid transition" style="fill:none;;;fill:none" marker-end="url(#chart-de-10_stateDiagram-barbEnd)"></path></g><g class="edgeLabels"><g class="edgeLabel" transform="translate(296.49, 58.42)"><g class="label" transform="translate(0, -9.95)"><g><rect class="background" style="" x="-64.09" y="-1.46" width="128.18" height="22.84"></rect><text y="-10.1" text-anchor="middle" style=""><tspan class="text-outer-tspan row" x="0" y="-0.1em" dy="1.1em" text-anchor="middle"><tspan class="text-inner-tspan">round.completed</tspan></tspan></text></g></g></g><g class="edgeLabel" transform="translate(445.5, 183.71)"><g class="label" transform="translate(0, -27.55)"><g><rect class="background" style="" x="-96.92" y="-1.46" width="193.84" height="58.04"></rect><text y="-10.1" text-anchor="middle" style=""><tspan class="text-outer-tspan row" x="0" y="-0.1em" dy="1.1em" text-anchor="middle"><tspan class="text-inner-tspan">alle</tspan><tspan class="text-inner-tspan"> haben</tspan><tspan class="text-inner-tspan"> die</tspan><tspan class="text-inner-tspan"> Statistik</tspan></tspan><tspan class="text-outer-tspan row" x="0" y="1em" dy="1.1em" text-anchor="middle"><tspan class="text-inner-tspan">gelesen,</tspan><tspan class="text-inner-tspan"> und</tspan><tspan class="text-inner-tspan"> es</tspan><tspan class="text-inner-tspan"> gibt</tspan><tspan class="text-inner-tspan"> einen</tspan></tspan><tspan class="text-outer-tspan row" x="0" y="2.1em" dy="1.1em" text-anchor="middle"><tspan class="text-inner-tspan">Stimmzettel</tspan></tspan></text></g></g></g><g class="edgeLabel" transform="translate(103.18, 383.25)"><g class="label" transform="translate(0, -18.75)"><g><rect class="background" style="" x="-95.18" y="-1.46" width="190.37" height="40.45"></rect><text y="-10.1" text-anchor="middle" style=""><tspan class="text-outer-tspan row" x="0" y="-0.1em" dy="1.1em" text-anchor="middle"><tspan class="text-inner-tspan">alle</tspan><tspan class="text-inner-tspan"> haben</tspan><tspan class="text-inner-tspan"> die</tspan><tspan class="text-inner-tspan"> Statistik</tspan></tspan><tspan class="text-outer-tspan row" x="0" y="1em" dy="1.1em" text-anchor="middle"><tspan class="text-inner-tspan">gelesen,</tspan><tspan class="text-inner-tspan"> kein</tspan><tspan class="text-inner-tspan"> Stimmzettel</tspan></tspan></text></g></g></g><g class="edgeLabel" transform="translate(445.5, 317.80)"><g class="label" transform="translate(0, -18.75)"><g><rect class="background" style="" x="-88.57" y="-1.46" width="177.15" height="40.45"></rect><text y="-10.1" text-anchor="middle" style=""><tspan class="text-outer-tspan row" x="0" y="-0.1em" dy="1.1em" text-anchor="middle"><tspan class="text-inner-tspan">Spielleitung</tspan><tspan class="text-inner-tspan"> eröffnet</tspan><tspan class="text-inner-tspan"> die</tspan></tspan><tspan class="text-outer-tspan row" x="0" y="1em" dy="1.1em" text-anchor="middle"><tspan class="text-inner-tspan">Abstimmung</tspan></tspan></text></g></g></g><g class="edgeLabel" transform="translate(207.70, 496.55)"><g class="label" transform="translate(0, -18.75)"><g><rect class="background" style="" x="-84.51" y="-1.46" width="169.03" height="40.45"></rect><text y="-10.1" text-anchor="middle" style=""><tspan class="text-outer-tspan row" x="0" y="-0.1em" dy="1.1em" text-anchor="middle"><tspan class="text-inner-tspan">ein</tspan><tspan class="text-inner-tspan"> Gewinner,</tspan><tspan class="text-inner-tspan"> die</tspan><tspan class="text-inner-tspan"> neue</tspan></tspan><tspan class="text-outer-tspan row" x="0" y="1em" dy="1.1em" text-anchor="middle"><tspan class="text-inner-tspan">active_map_version</tspan></tspan></text></g></g></g><g class="edgeLabel" transform="translate(534.33, 439.90)"><g class="label" transform="translate(0, -9.95)"><g><rect class="background" style="" x="-68.59" y="-1.46" width="137.18" height="22.84"></rect><text y="-10.1" text-anchor="middle" style=""><tspan class="text-outer-tspan row" x="0" y="-0.1em" dy="1.1em" text-anchor="middle"><tspan class="text-inner-tspan">erster</tspan><tspan class="text-inner-tspan"> Gleichstand</tspan></tspan></text></g></g></g><g class="edgeLabel" transform="translate(401.20, 496.55)"><g class="label" transform="translate(0, -18.75)"><g><rect class="background" style="" x="-88.98" y="-1.46" width="177.96" height="40.45"></rect><text y="-10.1" text-anchor="middle" style=""><tspan class="text-outer-tspan row" x="0" y="-0.1em" dy="1.1em" text-anchor="middle"><tspan class="text-inner-tspan">zweiter</tspan><tspan class="text-inner-tspan"> Gleichstand,</tspan><tspan class="text-inner-tspan"> die</tspan></tspan><tspan class="text-outer-tspan row" x="0" y="1em" dy="1.1em" text-anchor="middle"><tspan class="text-inner-tspan">Karte</tspan><tspan class="text-inner-tspan"> bleibt</tspan></tspan></text></g></g></g><g class="edgeLabel" transform="translate(619.21, 421.48)"><g class="label" transform="translate(0, -9.95)"><g><rect class="background" style="" x="-79.98" y="-1.46" width="159.96" height="22.84"></rect><text y="-10.1" text-anchor="middle" style=""><tspan class="text-outer-tspan row" x="0" y="-0.1em" dy="1.1em" text-anchor="middle"><tspan class="text-inner-tspan">Mehrheit</tspan><tspan class="text-inner-tspan"> für</tspan><tspan class="text-inner-tspan"> Neuwahl</tspan></tspan></text></g></g></g><g class="edgeLabel" transform="translate(650.33, 562.00)"><g class="label" transform="translate(0, -18.75)"><g><rect class="background" style="" x="-89.70" y="-1.46" width="179.40" height="40.45"></rect><text y="-10.1" text-anchor="middle" style=""><tspan class="text-outer-tspan row" x="0" y="-0.1em" dy="1.1em" text-anchor="middle"><tspan class="text-inner-tspan">keine</tspan><tspan class="text-inner-tspan"> Mehrheit,</tspan><tspan class="text-inner-tspan"> oder</tspan><tspan class="text-inner-tspan"> die</tspan></tspan><tspan class="text-outer-tspan row" x="0" y="1em" dy="1.1em" text-anchor="middle"><tspan class="text-inner-tspan">Spielleitung</tspan><tspan class="text-inner-tspan"> bricht</tspan><tspan class="text-inner-tspan"> ab</tspan></tspan></text></g></g></g><g class="edgeLabel" transform="translate(336.16, 687.30)"><g class="label" transform="translate(0, -18.75)"><g><rect class="background" style="" x="-68.89" y="-1.46" width="137.78" height="40.45"></rect><text y="-10.1" text-anchor="middle" style=""><tspan class="text-outer-tspan row" x="0" y="-0.1em" dy="1.1em" text-anchor="middle"><tspan class="text-inner-tspan">neue</tspan><tspan class="text-inner-tspan"> GameRound,</tspan></tspan><tspan class="text-outer-tspan row" x="0" y="1em" dy="1.1em" text-anchor="middle"><tspan class="text-inner-tspan">round.started</tspan></tspan></text></g></g></g></g><g class="nodes"><g class="node  statediagram-state" id="chart-de-10-state-NextRound-9" transform="translate(336.16, 624.65)"><rect class="basic label-container" style="" rx="5" ry="5" x="-62.19" y="-17.42" width="124.39" height="34.84"></rect><g class="label" style="" transform="translate(-54.19, -9.42)"><rect></rect><g><rect class="background" style="stroke: none"></rect><text y="-10.1" style=""><tspan class="text-outer-tspan row" x="0" y="-0.1em" dy="1.1em"><tspan class="text-inner-tspan">nächste</tspan><tspan class="text-inner-tspan"> Runde</tspan></tspan></text></g></g></g><g class="node default" id="chart-de-10-state-root_start-0" transform="translate(296.49, 15)"><circle class="state-start" r="7" width="14" height="14"></circle></g><g class="node  statediagram-state" id="chart-de-10-state-STATS-2" transform="translate(296.49, 112.26)"><rect class="basic label-container" style="" rx="5" ry="5" x="-32.94" y="-17.42" width="65.89" height="34.84"></rect><g class="label" style="" transform="translate(-24.94, -9.42)"><rect></rect><g><rect class="background" style="stroke: none"></rect><text y="-10.1" style=""><tspan class="text-outer-tspan row" x="0" y="-0.1em" dy="1.1em"><tspan class="text-inner-tspan">STATS</tspan></tspan></text></g></g></g><g class="node  statediagram-state" id="chart-de-10-state-DISCUSSION-3" transform="translate(445.5, 255.15)"><rect class="basic label-container" style="" rx="5" ry="5" x="-55.56" y="-17.42" width="111.12" height="34.84"></rect><g class="label" style="" transform="translate(-47.56, -9.42)"><rect></rect><g><rect class="background" style="stroke: none"></rect><text y="-10.1" style=""><tspan class="text-outer-tspan row" x="0" y="-0.1em" dy="1.1em"><tspan class="text-inner-tspan">DISCUSSION</tspan></tspan></text></g></g></g><g class="node  statediagram-state" id="chart-de-10-state-VOTING-7" transform="translate(445.5, 383.25)"><rect class="basic label-container" style="" rx="5" ry="5" x="-37.75" y="-17.42" width="75.5" height="34.84"></rect><g class="label" style="" transform="translate(-29.75, -9.42)"><rect></rect><g><rect class="background" style="stroke: none"></rect><text y="-10.1" style=""><tspan class="text-outer-tspan row" x="0" y="-0.1em" dy="1.1em"><tspan class="text-inner-tspan">VOTING</tspan></tspan></text></g></g></g><g class="node  statediagram-state" id="chart-de-10-state-STALEMATE-8" transform="translate(650.33, 496.55)"><rect class="basic label-container" style="" rx="5" ry="5" x="-53.67" y="-17.42" width="107.35" height="34.84"></rect><g class="label" style="" transform="translate(-45.67, -9.42)"><rect></rect><g><rect class="background" style="stroke: none"></rect><text y="-10.1" style=""><tspan class="text-outer-tspan row" x="0" y="-0.1em" dy="1.1em"><tspan class="text-inner-tspan">STALEMATE</tspan></tspan></text></g></g></g><g class="node default" id="chart-de-10-state-root_end-9" transform="translate(336.16, 739.53)"><g class="outer-path"><path d="M7 0 C7 0.40, 6.96 0.81, 6.89 1.21 C6.82 1.61, 6.71 2.01, 6.57 2.39 C6.43 2.77, 6.26 3.14, 6.06 3.49 C5.85 3.85, 5.62 4.18, 5.36 4.49 C5.10 4.80, 4.80 5.10, 4.49 5.36 C4.18 5.62, 3.85 5.85, 3.50 6.06 C3.14 6.26, 2.77 6.43, 2.39 6.57 C2.01 6.71, 1.61 6.82, 1.21 6.89 C0.81 6.96, 0.40 7, 4.28e-16 7 C-0.40 7, -0.81 6.96, -1.21 6.89 C-1.61 6.82, -2.01 6.71, -2.39 6.57 C-2.77 6.43, -3.14 6.26, -3.49 6.06 C-3.85 5.85, -4.18 5.62, -4.49 5.36 C-4.80 5.10, -5.10 4.80, -5.36 4.49 C-5.62 4.18, -5.85 3.85, -6.06 3.50 C-6.26 3.14, -6.43 2.77, -6.57 2.39 C-6.71 2.01, -6.82 1.61, -6.89 1.21 C-6.96 0.81, -6.99 0.40, -7 1.01e-14 C-7.00 -0.40, -6.96 -0.81, -6.89 -1.21 C-6.82 -1.61, -6.71 -2.01, -6.57 -2.39 C-6.43 -2.77, -6.26 -3.14, -6.06 -3.49 C-5.85 -3.85, -5.62 -4.18, -5.36 -4.49 C-5.10 -4.80, -4.80 -5.10, -4.49 -5.36 C-4.18 -5.62, -3.85 -5.85, -3.50 -6.06 C-3.14 -6.26, -2.77 -6.43, -2.39 -6.57 C-2.01 -6.71, -1.61 -6.82, -1.21 -6.89 C-0.81 -6.96, -0.40 -6.99, -1.99e-14 -7 C0.40 -7.00, 0.81 -6.96, 1.21 -6.89 C1.61 -6.82, 2.01 -6.71, 2.39 -6.57 C2.77 -6.43, 3.14 -6.26, 3.49 -6.06 C3.85 -5.85, 4.18 -5.62, 4.49 -5.36 C4.80 -5.10, 5.10 -4.80, 5.36 -4.49 C5.62 -4.18, 5.85 -3.85, 6.06 -3.50 C6.26 -3.14, 6.43 -2.77, 6.57 -2.39 C6.71 -2.01, 6.82 -1.61, 6.89 -1.21 C6.96 -0.81, 6.98 -0.20, 7 -3.28e-14 C7.01 0.20, 7.01 -0.20, 7 0" stroke="none" stroke-width="0" fill="var(--fig-bg, #ffffff)" style=""></path><path d="M7 0 C7 0.40, 6.96 0.81, 6.89 1.21 C6.82 1.61, 6.71 2.01, 6.57 2.39 C6.43 2.77, 6.26 3.14, 6.06 3.49 C5.85 3.85, 5.62 4.18, 5.36 4.49 C5.10 4.80, 4.80 5.10, 4.49 5.36 C4.18 5.62, 3.85 5.85, 3.50 6.06 C3.14 6.26, 2.77 6.43, 2.39 6.57 C2.01 6.71, 1.61 6.82, 1.21 6.89 C0.81 6.96, 0.40 7, 4.28e-16 7 C-0.40 7, -0.81 6.96, -1.21 6.89 C-1.61 6.82, -2.01 6.71, -2.39 6.57 C-2.77 6.43, -3.14 6.26, -3.49 6.06 C-3.85 5.85, -4.18 5.62, -4.49 5.36 C-4.80 5.10, -5.10 4.80, -5.36 4.49 C-5.62 4.18, -5.85 3.85, -6.06 3.50 C-6.26 3.14, -6.43 2.77, -6.57 2.39 C-6.71 2.01, -6.82 1.61, -6.89 1.21 C-6.96 0.81, -6.99 0.40, -7 1.01e-14 C-7.00 -0.40, -6.96 -0.81, -6.89 -1.21 C-6.82 -1.61, -6.71 -2.01, -6.57 -2.39 C-6.43 -2.77, -6.26 -3.14, -6.06 -3.49 C-5.85 -3.85, -5.62 -4.18, -5.36 -4.49 C-5.10 -4.80, -4.80 -5.10, -4.49 -5.36 C-4.18 -5.62, -3.85 -5.85, -3.50 -6.06 C-3.14 -6.26, -2.77 -6.43, -2.39 -6.57 C-2.01 -6.71, -1.61 -6.82, -1.21 -6.89 C-0.81 -6.96, -0.40 -6.99, -1.99e-14 -7 C0.40 -7.00, 0.81 -6.96, 1.21 -6.89 C1.61 -6.82, 2.01 -6.71, 2.39 -6.57 C2.77 -6.43, 3.14 -6.26, 3.49 -6.06 C3.85 -5.85, 4.18 -5.62, 4.49 -5.36 C4.80 -5.10, 5.10 -4.80, 5.36 -4.49 C5.62 -4.18, 5.85 -3.85, 6.06 -3.50 C6.26 -3.14, 6.43 -2.77, 6.57 -2.39 C6.71 -2.01, 6.82 -1.61, 6.89 -1.21 C6.96 -0.81, 6.98 -0.20, 7 -3.28e-14 C7.01 0.20, 7.01 -0.20, 7 0" stroke="var(--fig-ink, #111827)" stroke-width="2" fill="none" stroke-dasharray="0 0" style=""></path><g><path d="M2.5 0 C2.5 0.14, 2.48 0.29, 2.46 0.43 C2.43 0.57, 2.39 0.71, 2.34 0.85 C2.29 0.99, 2.23 1.12, 2.16 1.24 C2.09 1.37, 2.00 1.49, 1.91 1.60 C1.82 1.71, 1.71 1.82, 1.60 1.91 C1.49 2.00, 1.37 2.09, 1.25 2.16 C1.12 2.23, 0.99 2.29, 0.85 2.34 C0.71 2.39, 0.57 2.43, 0.43 2.46 C0.29 2.48, 0.14 2.5, 1.53e-16 2.5 C-0.14 2.5, -0.29 2.48, -0.43 2.46 C-0.57 2.43, -0.71 2.39, -0.85 2.34 C-0.99 2.29, -1.12 2.23, -1.24 2.16 C-1.37 2.09, -1.49 2.00, -1.60 1.91 C-1.71 1.82, -1.82 1.71, -1.91 1.60 C-2.00 1.49, -2.09 1.37, -2.16 1.25 C-2.23 1.12, -2.29 0.99, -2.34 0.85 C-2.39 0.71, -2.43 0.57, -2.46 0.43 C-2.48 0.29, -2.5 0.14, -2.5 3.63e-15 C-2.5 -0.14, -2.48 -0.29, -2.46 -0.43 C-2.43 -0.57, -2.39 -0.71, -2.34 -0.85 C-2.29 -0.99, -2.23 -1.12, -2.16 -1.24 C-2.09 -1.37, -2.00 -1.49, -1.91 -1.60 C-1.82 -1.71, -1.71 -1.82, -1.60 -1.91 C-1.49 -2.00, -1.37 -2.09, -1.25 -2.16 C-1.12 -2.23, -0.99 -2.29, -0.85 -2.34 C-0.71 -2.39, -0.57 -2.43, -0.43 -2.46 C-0.29 -2.48, -0.14 -2.49, -7.12e-15 -2.5 C0.14 -2.50, 0.29 -2.48, 0.43 -2.46 C0.57 -2.43, 0.71 -2.39, 0.85 -2.34 C0.99 -2.29, 1.12 -2.23, 1.24 -2.16 C1.37 -2.09, 1.49 -2.00, 1.60 -1.91 C1.71 -1.82, 1.82 -1.71, 1.91 -1.60 C2.00 -1.49, 2.09 -1.37, 2.16 -1.25 C2.23 -1.12, 2.29 -0.99, 2.34 -0.85 C2.39 -0.71, 2.43 -0.57, 2.46 -0.43 C2.48 -0.29, 2.49 -0.07, 2.5 -1.17e-14 C2.50 0.07, 2.50 -0.07, 2.5 0" stroke="none" stroke-width="0" fill="var(--fig-ink, #111827)" style=""></path><path d="M2.5 0 C2.5 0.14, 2.48 0.29, 2.46 0.43 C2.43 0.57, 2.39 0.71, 2.34 0.85 C2.29 0.99, 2.23 1.12, 2.16 1.24 C2.09 1.37, 2.00 1.49, 1.91 1.60 C1.82 1.71, 1.71 1.82, 1.60 1.91 C1.49 2.00, 1.37 2.09, 1.25 2.16 C1.12 2.23, 0.99 2.29, 0.85 2.34 C0.71 2.39, 0.57 2.43, 0.43 2.46 C0.29 2.48, 0.14 2.5, 1.53e-16 2.5 C-0.14 2.5, -0.29 2.48, -0.43 2.46 C-0.57 2.43, -0.71 2.39, -0.85 2.34 C-0.99 2.29, -1.12 2.23, -1.24 2.16 C-1.37 2.09, -1.49 2.00, -1.60 1.91 C-1.71 1.82, -1.82 1.71, -1.91 1.60 C-2.00 1.49, -2.09 1.37, -2.16 1.25 C-2.23 1.12, -2.29 0.99, -2.34 0.85 C-2.39 0.71, -2.43 0.57, -2.46 0.43 C-2.48 0.29, -2.5 0.14, -2.5 3.63e-15 C-2.5 -0.14, -2.48 -0.29, -2.46 -0.43 C-2.43 -0.57, -2.39 -0.71, -2.34 -0.85 C-2.29 -0.99, -2.23 -1.12, -2.16 -1.24 C-2.09 -1.37, -2.00 -1.49, -1.91 -1.60 C-1.82 -1.71, -1.71 -1.82, -1.60 -1.91 C-1.49 -2.00, -1.37 -2.09, -1.25 -2.16 C-1.12 -2.23, -0.99 -2.29, -0.85 -2.34 C-0.71 -2.39, -0.57 -2.43, -0.43 -2.46 C-0.29 -2.48, -0.14 -2.49, -7.12e-15 -2.5 C0.14 -2.50, 0.29 -2.48, 0.43 -2.46 C0.57 -2.43, 0.71 -2.39, 0.85 -2.34 C0.99 -2.29, 1.12 -2.23, 1.24 -2.16 C1.37 -2.09, 1.49 -2.00, 1.60 -1.91 C1.71 -1.82, 1.82 -1.71, 1.91 -1.60 C2.00 -1.49, 2.09 -1.37, 2.16 -1.25 C2.23 -1.12, 2.29 -0.99, 2.34 -0.85 C2.39 -0.71, 2.43 -0.57, 2.46 -0.43 C2.48 -0.29, 2.49 -0.07, 2.5 -1.17e-14 C2.50 0.07, 2.50 -0.07, 2.5 0" stroke="var(--fig-ink, #111827)" stroke-width="2" fill="none" stroke-dasharray="0 0" style=""></path></g></g></g></g></g></g><defs></defs><defs></defs><linearGradient id="chart-de-10-gradient" gradientUnits="objectBoundingBox" x1="0%" y1="0%" x2="100%" y2="0%"><stop offset="0%" stop-color="var(--fig-ink, #111827)" stop-opacity="1"></stop><stop offset="100%" stop-color="var(--fig-strong, #bcc3cc)" stop-opacity="1"></stop></linearGradient></svg>
